<svg xmlns="http://www.w3.org/2000/svg" width="96" height="131" viewBox="0 0 96 131" fill="none">
  <path d="M7.84778 130.407C3.51707 130.407 0 126.897 0 122.575V8.38125C0 4.05968 3.51707 0.550049 7.84778 0.550049H87.8741C92.2048 0.550049 95.7219 4.05968 95.7219 8.38125V122.575C95.7219 126.897 92.2048 130.407 87.8741 130.407H7.84778Z" fill="#32023A"/>
  <path d="M91.05 83.9693H93.4647V122.575C93.4647 125.666 90.945 128.154 87.8741 128.154H7.84779C4.75067 128.154 2.25723 125.64 2.25723 122.575V83.9693H4.67193C7.76905 83.9693 10.2625 81.4549 10.2625 78.3905V67.1545H85.4332V78.3905C85.4332 81.4811 87.9529 83.9693 91.05 83.9693ZM87.8741 2.80243H7.84779C4.75067 2.80243 2.25723 5.3168 2.25723 8.38118V46.9872H4.67193C7.76905 46.9872 10.2625 49.5015 10.2625 52.5659V63.802H85.4332V52.5659C85.4332 49.4753 87.9529 46.9872 91.0237 46.9872H93.4384V8.38118C93.4647 5.2906 90.9712 2.80243 87.8741 2.80243Z" fill="url(#paint0_linear_212_7)"/>
  <path d="M7.84778 127.054C5.38059 127.054 3.35959 125.037 3.35959 122.575V85.0956H4.67193C8.37272 85.0956 11.3911 82.0836 11.3911 78.3906V68.2808H84.3308V78.3906C84.3308 82.0836 87.3492 85.0956 91.05 85.0956H92.3623V122.575C92.3623 125.037 90.3413 127.054 87.8741 127.054H7.84778Z" fill="url(#paint1_linear_212_7)"/>
  <path d="M11.3911 62.6758H84.3308V52.566C84.3308 48.873 87.3492 45.861 91.05 45.861H92.3623V8.38124C92.3623 5.91926 90.3413 3.90253 87.8741 3.90253H7.84778C5.38059 3.90253 3.35959 5.91926 3.35959 8.38124V45.861H4.67193C8.37272 45.861 11.3911 48.873 11.3911 52.566V62.6758Z" fill="url(#paint2_linear_212_7)"/>
  <path d="M93.4648 48.1135H91.0501C88.5829 48.1135 86.5619 50.104 86.5619 52.5922V78.4168C86.5619 80.8788 88.5566 82.8955 91.0501 82.8955H93.4648V48.1135Z" fill="#32023A"/>
  <path d="M2.25723 48.1135H4.67193C7.13913 48.1135 9.16013 50.104 9.16013 52.5922V78.4168C9.16013 80.8788 7.16537 82.8955 4.67193 82.8955H2.25723V48.1135Z" fill="#32023A"/>
  <defs>
    <linearGradient id="paint0_linear_212_7" x1="47.861" y1="2.80243" x2="47.861" y2="128.154" gradientUnits="userSpaceOnUse">
      <stop stop-color="#5C006A"/>
      <stop offset="1" stop-color="#44034F"/>
    </linearGradient>
    <linearGradient id="paint1_linear_212_7" x1="47.861" y1="68.2808" x2="47.861" y2="127.054" gradientUnits="userSpaceOnUse">
      <stop stop-color="#5C006A"/>
      <stop offset="1" stop-color="#44034F"/>
    </linearGradient>
    <linearGradient id="paint2_linear_212_7" x1="47.861" y1="3.90253" x2="47.861" y2="62.6758" gradientUnits="userSpaceOnUse">
      <stop stop-color="#5C006A"/>
      <stop offset="1" stop-color="#44034F"/>
    </linearGradient>
  </defs>
</svg>